<?xml version="1.0" standalone="no"?>
<!DOCTYPE svg PUBLIC "-//W3C//DTD SVG 20010904//EN"
 "http://www.w3.org/TR/2001/REC-SVG-20010904/DTD/svg10.dtd">
<svg version="1.0" xmlns="http://www.w3.org/2000/svg"
 width="4676.000000pt" height="4675.000000pt" viewBox="0 0 4676.000000 4675.000000"
 preserveAspectRatio="xMidYMid meet">

<g transform="translate(0.000000,4675.000000) scale(0.100000,-0.100000)"
fill="#ffffff" stroke="none">
<path d="M23215 42195 c-412 -79 -844 -162 -960 -184 -115 -22 -590 -113
-1055 -201 -465 -88 -1034 -197 -1265 -241 -231 -44 -523 -99 -650 -123 -1085
-206 -1361 -259 -1364 -262 -4 -4 178 -976 184 -982 1 -2 85 13 186 32 101 20
706 135 1344 256 638 122 1205 230 1260 240 55 11 480 92 945 180 465 89 951
181 1080 206 295 57 310 59 310 47 0 -6 77 -388 170 -849 94 -461 200 -984
236 -1162 36 -178 64 -326 61 -328 -5 -5 -461 95 -1937 423 -426 94 -488 106
-600 110 -597 23 -1118 -396 -1237 -995 -24 -124 -22 -328 5 -452 12 -52 401
-1299 866 -2770 1018 -3227 3515 -11136 3691 -11695 69 -220 139 -435 157
-478 71 -180 214 -370 362 -485 l29 -22 -197 -893 c-109 -490 -200 -902 -202
-913 -5 -19 -2 -21 31 -18 186 14 663 168 961 309 l111 52 16 69 c8 38 70 318
138 623 68 304 128 554 133 556 55 13 204 63 254 86 88 39 216 125 291 195 36
32 407 433 825 889 419 457 2203 2406 3966 4330 1763 1925 3776 4123 4474
4885 698 762 1296 1421 1329 1465 157 209 243 489 232 757 -19 448 -275 848
-666 1041 -93 46 -235 97 -269 97 -17 0 -18 15 -19 213 0 212 -8 319 -37 497
-49 300 -167 648 -309 915 -481 904 -1354 1494 -2367 1600 -779 81 -1578 -156
-2198 -651 -114 -92 -324 -297 -422 -414 -192 -228 -368 -516 -473 -775 -16
-38 -31 -73 -35 -77 -3 -4 -289 55 -635 132 -1514 335 -3449 763 -4275 946
-492 108 -900 202 -906 208 -6 6 -113 515 -238 1131 -589 2909 -528 2620 -556
2622 -14 1 -362 -63 -775 -142z m-1760 -3909 c160 -36 772 -171 1360 -301 589
-129 1079 -240 1090 -244 17 -7 26 -34 52 -167 56 -276 464 -2293 490 -2417 4
-22 0 -34 -21 -56 l-27 -28 56 -118 c53 -113 83 -200 73 -211 -4 -3 -654 138
-1571 342 -92 20 -169 35 -172 32 -3 -3 314 -1020 706 -2259 391 -1240 1100
-3487 1575 -4994 476 -1507 890 -2819 921 -2915 l55 -175 42 46 c37 40 842
920 3712 4053 l871 951 -86 30 c-259 90 -453 302 -521 569 -23 90 -27 254 -9
352 43 234 212 455 431 563 143 70 206 85 358 84 185 0 318 -40 466 -141 117
-79 244 -238 291 -365 9 -26 21 -46 25 -45 3 2 208 223 455 493 246 269 638
696 870 950 336 366 419 461 405 467 -9 4 -343 79 -742 167 -399 88 -1323 293
-2055 455 -2507 555 -2872 636 -3845 851 -536 118 -1004 222 -1040 231 l-66
15 -16 82 c-53 260 -395 1942 -484 2385 -58 288 -104 525 -102 528 3 2 513
-109 1134 -246 621 -138 1473 -327 1894 -420 421 -93 1204 -266 1740 -385 536
-119 1207 -267 1490 -330 589 -130 1647 -365 2800 -620 437 -97 1007 -223
1265 -280 259 -57 573 -127 700 -155 155 -34 243 -58 271 -75 90 -53 123 -205
63 -288 -13 -19 -1662 -1822 -3664 -4008 -2002 -2186 -4347 -4746 -5212 -5690
-864 -944 -1584 -1726 -1599 -1738 -81 -64 -223 -43 -287 41 -17 23 -91 241
-230 683 -113 358 -793 2513 -1512 4790 -1244 3942 -2423 7678 -2782 8814
-147 465 -165 530 -161 577 9 104 95 184 198 184 32 0 180 -27 345 -64z
m12130 -67 c585 -50 1102 -336 1452 -804 175 -233 304 -519 362 -800 22 -110
47 -323 38 -331 -3 -4 -88 12 -189 35 -101 22 -581 129 -1068 236 -487 108
-1260 279 -1718 381 -458 101 -834 184 -837 184 -19 0 149 260 234 364 81 98
250 261 346 332 406 304 892 446 1380 403z m-5455 -5286 c109 -26 212 -123
256 -243 23 -65 20 -182 -6 -253 -30 -79 -104 -158 -188 -199 -61 -30 -75 -33
-162 -33 -82 0 -103 4 -152 27 -237 111 -294 418 -111 601 96 97 226 132 363
100z m-1780 -1753 c506 -66 888 -458 940 -965 37 -364 -125 -733 -419 -956
-94 -71 -268 -155 -386 -186 -85 -22 -122 -26 -250 -27 -204 -1 -330 28 -502
115 -271 138 -469 386 -551 687 -23 87 -26 115 -25 267 0 150 3 181 25 266
140 522 644 866 1168 799z"/>
<path d="M33683 37791 c-63 -40 -62 -33 -84 -551 -6 -152 -10 -284 -8 -294 2
-10 71 143 153 341 136 329 148 362 143 406 -6 70 -47 109 -119 114 -41 3 -60
-1 -85 -16z"/>
<path d="M32580 37669 c-21 -4 -48 -22 -67 -43 -28 -30 -33 -43 -33 -83 1 -27
6 -58 13 -70 12 -22 525 -583 533 -583 2 0 -3 17 -12 38 -8 20 -74 180 -147
356 -72 175 -141 331 -154 346 -27 32 -84 49 -133 39z"/>
<path d="M34714 37237 c-24 -14 -585 -529 -581 -533 2 -2 162 62 357 143 220
90 366 155 383 171 68 64 51 174 -35 218 -33 17 -96 18 -124 1z"/>
<path d="M12925 39171 c-134 -25 -211 -46 -325 -88 -410 -153 -791 -450 -1145
-893 -102 -127 -306 -435 -396 -595 -306 -549 -512 -1188 -589 -1829 -29 -248
-30 -253 -36 -561 -12 -541 35 -1041 182 -1945 220 -1349 514 -2357 1046
-3590 60 -140 126 -293 146 -340 l37 -85 6 115 c4 63 12 162 18 220 6 58 16
150 22 205 6 55 17 136 24 180 36 205 79 535 95 725 18 230 35 356 70 525 43
210 155 596 247 850 80 220 266 573 542 1030 121 199 235 396 291 500 73 137
100 184 213 375 215 361 380 742 561 1295 325 992 389 1204 436 1435 159 791
75 1372 -273 1895 -196 295 -434 489 -692 566 -102 31 -342 36 -480 10z"/>
<path d="M18043 37265 c-397 -53 -746 -271 -968 -604 -151 -226 -225 -474
-225 -751 0 -159 18 -283 61 -418 134 -420 456 -746 875 -885 149 -49 263 -68
424 -68 389 -1 728 143 998 425 182 191 297 412 353 679 29 134 31 370 5 502
-38 193 -113 376 -219 535 -64 96 -260 293 -357 357 -279 187 -628 271 -947
228z m438 -279 c379 -96 672 -369 793 -737 248 -757 -375 -1533 -1165 -1450
-261 28 -496 139 -678 322 -433 432 -435 1130 -6 1564 170 172 382 282 613
320 126 21 320 13 443 -19z"/>
<path d="M18090 36799 c0 -11 18 -118 39 -237 21 -120 50 -277 62 -349 13 -73
26 -133 29 -133 5 0 132 704 131 728 -1 9 -34 12 -131 12 -125 0 -130 -1 -130
-21z"/>
<path d="M18555 36358 c-248 -357 -236 -337 -199 -311 16 11 157 109 314 218
157 109 286 199 287 199 1 1 -41 45 -95 98 l-97 97 -210 -301z"/>
<path d="M17571 36546 l-93 -93 311 -217 c170 -119 312 -216 315 -216 3 0 -31
53 -77 118 -46 64 -143 204 -217 310 -73 105 -136 192 -140 192 -3 0 -47 -42
-99 -94z"/>
<path d="M17310 35917 l0 -133 369 66 c204 36 367 68 363 71 -7 7 -687 129
-716 129 -14 0 -16 -17 -16 -133z"/>
<path d="M19065 36035 c-5 -2 -156 -29 -335 -60 -179 -31 -332 -59 -340 -62
-8 -3 152 -36 355 -73 204 -36 373 -65 378 -63 4 2 7 62 7 134 l0 129 -27 -1
c-16 0 -32 -2 -38 -4z"/>
<path d="M17816 35589 c-165 -115 -304 -213 -310 -219 -7 -7 17 -38 79 -100
49 -50 94 -90 100 -90 10 1 439 610 433 615 -2 2 -138 -91 -302 -206z"/>
<path d="M18361 35755 c19 -28 117 -168 218 -312 100 -145 186 -263 189 -263
4 0 49 42 100 93 l92 93 -302 210 c-167 116 -310 214 -318 219 -8 5 1 -13 21
-40z"/>
<path d="M18176 35517 c-22 -122 -52 -291 -66 -374 l-27 -153 134 0 135 0 -7
43 c-3 23 -17 103 -31 177 -13 74 -40 222 -59 329 -19 106 -35 195 -37 196 -2
2 -21 -96 -42 -218z"/>
<path d="M15355 33544 c-98 -14 -181 -27 -184 -29 -5 -6 -4 -14 90 -729 38
-291 69 -533 69 -538 0 -4 -30 -23 -68 -42 -457 -230 -603 -814 -307 -1231
120 -169 304 -290 510 -334 l79 -17 23 -165 c12 -90 22 -168 23 -172 0 -4 -16
-15 -36 -23 -20 -9 -66 -33 -101 -54 -237 -145 -384 -393 -400 -675 -8 -159
34 -329 118 -473 34 -56 195 -230 234 -250 19 -10 19 -12 -11 -44 -17 -18
-170 -186 -340 -373 -170 -187 -474 -520 -675 -740 -978 -1072 -2462 -2699
-3448 -3780 -601 -660 -1105 -1212 -1120 -1227 l-26 -27 -1250 414 c-687 228
-1716 577 -2285 775 -569 198 -1036 360 -1037 360 -2 0 16 -28 38 -62 59 -91
133 -249 173 -369 116 -347 80 -651 -108 -885 -98 -123 -225 -213 -456 -325
-315 -153 -485 -307 -600 -544 -58 -119 -86 -220 -100 -364 -20 -201 23 -464
111 -676 l29 -70 1023 -354 c562 -195 1027 -356 1034 -359 7 -2 -3 34 -22 81
-118 291 -141 663 -56 909 52 150 146 294 268 408 102 95 209 164 393 254 85
41 182 93 215 115 191 127 314 283 375 476 30 96 38 286 17 410 -9 49 -15 90
-14 91 3 3 1915 -631 1921 -637 3 -3 -827 -918 -1844 -2033 -1018 -1115 -1850
-2028 -1850 -2029 0 -1 210 1 467 4 258 4 682 10 943 13 261 4 601 8 755 11
154 3 483 7 730 10 248 3 572 7 720 10 149 3 475 7 725 10 250 3 588 7 750 10
162 3 477 7 700 10 223 3 558 7 745 10 187 3 1173 17 2190 30 1947 25 2145 29
2290 45 629 70 1248 316 1730 688 43 34 82 62 85 62 3 0 205 -182 449 -404
l444 -404 101 34 c186 64 510 234 744 390 l63 42 -93 75 c-153 125 -1051 850
-1082 874 -15 12 -26 26 -24 30 2 4 42 67 89 138 293 444 484 969 543 1490 32
279 30 440 -9 895 -32 360 -64 732 -70 795 -3 28 -12 127 -20 220 -15 174 -17
192 -35 400 -6 66 -13 140 -15 165 -3 25 -9 101 -15 170 -6 69 -17 197 -25
285 -8 88 -22 241 -30 340 -9 99 -18 203 -20 230 -3 28 -16 178 -30 335 -14
157 -27 310 -30 340 -6 60 -46 520 -95 1075 -17 193 -33 373 -35 400 -3 28
-23 257 -45 510 -23 253 -43 480 -45 505 -3 25 -12 126 -20 225 -14 161 -36
412 -50 565 -3 30 -18 210 -35 400 -17 190 -32 368 -35 395 -3 28 -12 129 -20
225 -8 96 -17 198 -20 225 -3 28 -48 538 -100 1135 -53 597 -97 1101 -100
1120 -2 19 -7 80 -11 135 -3 55 -10 106 -14 113 -5 10 -370 -384 -1146 -1235
-626 -686 -1155 -1266 -1175 -1288 l-37 -40 -69 66 c-115 111 -234 178 -379
215 l-71 18 -17 125 c-31 231 -32 248 -8 255 43 14 173 107 231 166 121 122
207 290 232 451 14 92 6 274 -15 354 -9 33 -39 107 -68 165 -45 92 -63 116
-147 201 -127 128 -228 186 -396 229 l-70 18 -72 543 c-39 299 -77 588 -83
642 l-12 97 -32 -1 c-17 -1 -112 -12 -211 -25z m428 -1574 c220 -68 371 -278
371 -515 0 -303 -232 -536 -534 -539 -154 -1 -266 43 -381 151 -182 170 -218
469 -81 678 139 212 383 300 625 225z m2462 -1755 c14 -170 28 -330 31 -355 2
-25 11 -124 19 -220 9 -96 18 -200 21 -230 3 -41 117 -1333 199 -2265 7 -77
13 -146 20 -215 3 -30 21 -237 40 -459 20 -222 38 -426 40 -455 10 -106 26
-283 30 -336 3 -30 9 -104 15 -165 5 -60 17 -189 25 -285 8 -96 17 -200 20
-230 3 -30 10 -107 15 -170 22 -241 62 -695 95 -1075 14 -159 32 -364 40 -455
9 -91 18 -192 21 -225 2 -33 25 -287 50 -565 68 -757 68 -915 3 -1243 -16 -81
-29 -151 -29 -155 0 -4 -7 2 -15 12 -8 11 -15 15 -15 9 0 -53 -45 -245 -75
-317 -315 -775 -1005 -1361 -1810 -1535 -270 -59 -254 -58 -1570 -76 -203 -3
-525 -7 -715 -10 -190 -3 -514 -7 -720 -10 -383 -5 -795 -11 -1460 -20 -206
-3 -703 -10 -1105 -15 -401 -5 -890 -12 -1085 -15 -1074 -17 -2573 -36 -2576
-33 -1 2 130 150 293 328 163 179 738 809 1277 1400 539 591 995 1090 1011
1109 l31 33 1124 -372 c619 -205 1129 -375 1134 -378 24 -14 -363 -169 -584
-232 -79 -23 -169 -53 -199 -66 -137 -61 -303 -200 -411 -343 -97 -129 -198
-359 -216 -492 l-7 -52 534 7 c294 3 642 8 774 11 132 3 436 7 675 10 527 7
1727 22 2235 30 1156 16 1150 16 1330 56 312 69 596 223 826 446 328 319 507
708 535 1164 6 107 -30 635 -46 652 -3 4 -25 -6 -47 -22 -263 -191 -637 -228
-934 -94 -273 124 -473 374 -533 666 -21 102 -22 281 -1 382 74 358 371 657
727 729 46 10 128 16 201 16 143 0 270 -27 382 -80 37 -18 68 -30 69 -28 2 1
0 39 -5 83 -9 88 -17 181 -24 265 -2 30 -9 107 -15 170 -6 63 -31 347 -56 630
-24 283 -47 533 -49 555 -2 22 -18 209 -36 415 -17 206 -33 381 -35 388 -3 10
-19 1 -52 -27 -169 -148 -343 -267 -582 -400 -179 -100 -460 -245 -464 -239
-9 11 -106 812 -99 817 4 4 40 29 79 54 89 58 209 183 262 273 89 149 132 349
111 515 -41 342 -263 609 -589 710 -41 13 -76 24 -78 24 -1 1 -9 53 -17 115
l-15 113 43 46 c23 25 458 502 967 1060 746 817 926 1010 931 995 4 -11 19
-158 34 -329z m-2252 -180 c104 -22 192 -70 270 -147 37 -37 67 -74 67 -81 0
-13 -664 -750 -694 -771 -32 -22 -184 121 -235 223 -49 95 -64 171 -58 276 12
200 121 366 301 457 108 55 226 69 349 43z m240 -2081 c181 -47 333 -189 388
-363 27 -84 29 -232 6 -309 -55 -181 -197 -323 -377 -377 -71 -21 -217 -21
-290 1 -97 29 -172 73 -240 143 -164 167 -204 409 -101 617 112 226 375 350
614 288z m-926 -651 c8 -87 49 -218 96 -307 83 -155 213 -280 371 -356 79 -38
224 -80 277 -80 28 0 26 6 45 -125 7 -54 76 -577 93 -712 l16 -132 -90 -63
c-116 -81 -312 -277 -397 -398 -179 -254 -300 -539 -402 -950 -79 -315 -130
-456 -233 -650 -213 -399 -502 -727 -1193 -1355 -151 -138 -325 -297 -385
-355 -111 -105 -343 -292 -371 -298 -12 -3 -2398 779 -2432 797 -8 5 289 338
895 1002 499 547 1535 1682 2302 2522 766 841 1396 1526 1398 1523 3 -2 7 -31
10 -63z m-551 -5363 c219 -76 353 -262 356 -495 2 -151 -51 -274 -162 -379
-214 -201 -524 -196 -730 13 -102 103 -150 218 -150 361 0 358 352 615 686
500z"/>
<path d="M7289 31986 c-2 -2 -60 -6 -129 -9 -540 -27 -964 -179 -1257 -451
-175 -164 -273 -348 -289 -544 -20 -257 145 -506 431 -649 266 -134 650 -217
1355 -292 157 -17 346 -38 420 -46 74 -8 297 -29 495 -45 434 -36 539 -49 849
-101 581 -97 1094 -226 1311 -329 202 -96 550 -394 725 -620 49 -63 139 -164
200 -223 120 -118 127 -121 151 -50 15 45 9 96 -36 328 -34 174 -89 381 -167
625 -50 156 -179 387 -318 570 -101 132 -486 556 -647 711 -176 170 -408 355
-583 464 -462 288 -1252 550 -1895 630 -189 23 -601 44 -616 31z"/>
<path d="M37940 25533 c-253 -20 -552 -95 -800 -200 -107 -46 -152 -69 -390
-201 -245 -137 -374 -187 -580 -226 -269 -52 -328 -106 -287 -265 26 -98 68
-176 173 -322 127 -176 121 -166 269 -449 70 -135 150 -287 177 -339 88 -168
612 -1211 713 -1421 54 -113 152 -315 218 -450 122 -250 325 -673 402 -835 24
-49 111 -234 195 -410 84 -176 166 -349 183 -385 16 -36 86 -182 154 -325 68
-143 138 -290 155 -327 17 -38 37 -68 43 -68 7 0 34 -48 60 -107 84 -190 126
-262 243 -417 202 -265 705 -886 807 -995 65 -70 130 -101 213 -101 80 0 154
25 310 106 243 125 376 233 435 354 30 61 32 71 32 170 -1 91 -5 117 -32 197
-54 154 -268 569 -686 1330 -119 216 -226 411 -237 433 -25 50 -53 230 -35
230 34 0 177 -61 405 -172 140 -69 547 -268 905 -443 357 -174 689 -339 737
-366 178 -101 222 -112 365 -93 189 26 351 86 433 160 22 20 51 60 66 90 49
100 16 150 -156 238 -52 27 -116 64 -141 82 -26 19 -71 45 -100 58 -30 13
-112 50 -184 81 -71 32 -164 74 -205 93 -528 245 -1297 594 -1557 708 -315
137 -355 160 -390 227 -26 51 -17 141 45 457 116 581 164 852 202 1133 11 84
22 166 25 182 9 68 35 328 44 445 14 180 6 591 -14 720 -82 529 -313 883 -721
1106 -200 109 -520 220 -794 274 -197 40 -508 59 -700 43z m48 -483 c368 -33
714 -185 970 -425 122 -115 210 -234 282 -380 67 -136 93 -222 115 -380 9 -60
18 -123 21 -140 2 -16 7 -129 11 -250 11 -415 -33 -791 -183 -1559 -52 -264
-59 -292 -88 -329 -17 -22 -36 -42 -42 -44 -5 -2 -29 13 -52 33 -35 30 -65 82
-187 324 -140 278 -144 290 -124 300 12 7 18 17 15 27 -3 8 -109 180 -234 381
-126 202 -347 558 -492 792 -302 487 -544 875 -671 1071 -49 76 -111 174 -139
220 -81 133 -69 170 73 238 130 62 296 106 457 120 124 12 144 12 268 1z"/>
<path d="M33731 23193 c-127 -15 -62 11 -1046 -413 -501 -216 -600 -255 -751
-300 -77 -23 -167 -50 -201 -61 l-62 -20 140 -179 c160 -205 108 -99 482 -990
252 -601 745 -1775 764 -1818 11 -27 18 -32 40 -30 26 3 32 -9 205 -377 231
-495 344 -720 529 -1055 306 -556 500 -884 735 -1243 109 -165 165 -240 234
-311 239 -247 524 -358 880 -343 161 7 265 27 427 82 503 172 925 539 1338
1162 72 109 84 149 71 236 l-7 43 -67 -8 c-37 -5 -83 -14 -102 -20 -19 -6
-143 -76 -275 -156 -880 -532 -909 -549 -993 -572 -55 -14 -97 -1 -139 43 -61
63 -89 126 -390 857 -96 234 -215 515 -263 625 -108 248 -110 253 -110 334 1
128 44 181 275 336 203 135 563 391 599 423 33 32 76 116 76 152 0 53 -72 110
-165 130 -42 9 -63 7 -129 -10 -143 -36 -496 -213 -716 -357 -186 -123 -236
-140 -306 -107 -44 21 -78 65 -146 190 -125 226 -364 597 -663 1029 -23 33
-140 204 -260 380 -275 404 -559 810 -787 1127 -181 254 -202 294 -180 343 17
37 84 81 387 254 287 164 534 313 592 357 18 14 39 37 47 52 14 27 61 222 54
226 -1 1 -54 -4 -117 -11z"/>
<path d="M29538 21660 c-117 -20 -239 -72 -355 -152 -235 -162 -274 -322 -162
-673 47 -151 52 -195 89 -820 16 -280 32 -544 35 -585 9 -152 16 -267 45 -800
16 -300 32 -585 35 -635 18 -314 25 -499 20 -518 -10 -36 -47 -127 -51 -127
-3 0 -32 13 -67 28 -47 22 -133 89 -357 282 -814 700 -933 815 -1584 1520
-487 528 -635 680 -722 740 -212 147 -445 163 -737 50 -209 -80 -280 -145
-280 -255 0 -55 -4 -45 213 -560 155 -371 307 -750 733 -1840 871 -2222 1535
-3883 1628 -4066 47 -95 144 -204 326 -368 240 -215 231 -208 298 -226 89 -23
116 -19 208 28 306 158 555 500 628 862 16 79 16 245 0 320 -26 122 -196 565
-379 990 -50 116 -145 336 -211 490 -67 154 -127 281 -133 283 -7 2 -161 312
-341 690 -292 611 -329 694 -339 759 -6 41 -8 76 -5 79 3 3 43 -12 89 -33 72
-34 115 -68 328 -254 407 -357 762 -659 823 -701 75 -51 175 -88 257 -95 176
-15 382 104 464 268 63 125 68 229 26 527 -51 371 -240 1971 -240 2038 0 28 3
66 6 83 l7 32 39 -38 c77 -74 99 -117 291 -563 90 -210 98 -230 337 -815 483
-1183 627 -1487 1065 -2255 111 -195 275 -485 365 -645 347 -617 383 -669 504
-726 71 -34 135 -37 244 -14 237 50 424 186 516 378 62 128 80 220 73 366 -6
121 -26 219 -59 284 -23 46 -205 483 -560 1342 -604 1463 -975 2340 -1298
3070 -294 663 -410 872 -954 1713 -245 377 -278 418 -394 480 -120 64 -305 89
-464 62z"/>
<path d="M23011 18539 c-109 -21 -248 -79 -341 -142 -244 -165 -288 -334 -177
-678 19 -58 38 -125 42 -150 3 -24 8 -55 10 -69 3 -14 13 -176 25 -360 11
-184 22 -371 25 -415 3 -44 19 -316 35 -605 16 -289 32 -565 35 -615 7 -118
13 -224 20 -370 4 -66 8 -138 10 -160 2 -22 9 -168 16 -326 l13 -285 -24 -67
c-13 -37 -27 -67 -31 -67 -4 0 -36 13 -71 29 -49 22 -134 90 -373 296 -812
700 -937 821 -1700 1650 -448 487 -575 606 -707 665 -166 73 -372 69 -591 -11
-170 -63 -254 -117 -286 -183 -42 -85 -39 -96 159 -561 134 -315 369 -902 658
-1640 558 -1425 726 -1853 1044 -2650 397 -994 668 -1653 711 -1728 51 -88
169 -212 379 -398 179 -158 216 -179 314 -179 50 0 163 55 253 122 323 241
528 644 508 998 -6 109 -33 199 -158 526 -135 354 -560 1343 -577 1344 -7 0
-30 37 -52 83 -21 45 -149 314 -285 597 -338 704 -335 697 -344 780 -5 49 -4
69 3 66 161 -64 130 -41 431 -307 482 -424 784 -676 853 -712 81 -43 167 -67
237 -67 161 0 350 111 423 248 69 130 77 244 37 547 -14 105 -27 208 -30 230
-3 22 -18 148 -35 280 -27 219 -69 578 -121 1020 -20 177 -33 285 -46 370 -10
69 -6 236 5 247 13 13 104 -97 141 -170 72 -143 243 -545 511 -1202 478 -1171
691 -1627 1045 -2230 37 -63 142 -248 232 -410 388 -691 510 -896 566 -951 23
-22 70 -54 104 -71 78 -38 147 -39 286 -4 146 37 245 93 348 195 69 69 94 103
127 171 60 121 76 193 76 330 0 125 -25 254 -65 331 -18 37 -211 494 -359 854
-851 2069 -1476 3539 -1703 4005 -135 278 -310 578 -600 1030 -403 628 -412
638 -539 705 -98 52 -200 75 -322 74 -56 -1 -121 -5 -145 -10z"/>
<path d="M16175 17718 c-210 -11 -621 -46 -795 -68 -41 -5 -104 -12 -140 -15
-252 -24 -802 -102 -1640 -231 -898 -139 -1010 -155 -1610 -238 -713 -98
-1289 -166 -1409 -166 -28 0 -41 17 223 -275 377 -416 1028 -1052 1330 -1300
l45 -36 213 61 c231 67 714 216 979 303 146 47 186 65 331 150 311 181 799
435 1238 641 424 200 831 407 1245 634 845 462 978 539 950 546 -35 9 -776 4
-960 -6z"/>
<path d="M8200 17281 c-269 -48 -494 -136 -711 -280 -466 -309 -759 -808 -809
-1375 -28 -317 38 -647 190 -951 95 -190 178 -303 345 -471 155 -155 307 -266
478 -348 327 -157 679 -216 1024 -171 819 107 1451 731 1574 1555 15 97 18
326 6 445 -32 323 -177 673 -388 935 -271 337 -639 561 -1069 651 -150 31
-488 36 -640 10z m527 -336 c317 -52 575 -187 809 -420 210 -210 341 -453 405
-755 29 -137 32 -395 6 -540 -85 -465 -387 -863 -812 -1070 -120 -59 -215 -91
-355 -121 -150 -32 -429 -33 -576 -1 -202 43 -370 114 -535 223 -124 83 -324
282 -403 403 -207 314 -288 674 -235 1041 63 441 343 847 734 1067 294 165
638 227 962 173z"/>
<path d="M8320 16686 c0 -14 116 -677 145 -826 7 -41 17 -94 20 -118 4 -24 9
-42 10 -40 2 2 31 157 64 343 34 187 72 401 86 475 37 202 56 180 -150 180
-143 0 -175 -3 -175 -14z"/>
<path d="M9005 16178 c-324 -466 -370 -534 -355 -522 8 6 195 136 415 289 220
153 402 280 405 282 4 4 -241 253 -250 253 -3 0 -99 -136 -215 -302z"/>
<path d="M7640 16335 c-68 -68 -122 -126 -120 -128 3 -2 163 -113 355 -247
193 -133 379 -263 414 -288 35 -25 60 -38 55 -30 -25 41 -570 818 -574 818 -3
0 -61 -56 -130 -125z"/>
<path d="M7280 15505 c0 -160 1 -175 18 -175 9 0 231 38 492 85 261 47 479 85
484 85 35 0 -30 14 -229 50 -127 22 -341 61 -477 85 -135 25 -256 45 -267 45
-20 0 -21 -4 -21 -175z"/>
<path d="M9595 15655 c-81 -16 -631 -115 -782 -141 -57 -10 -100 -20 -97 -23
8 -8 967 -180 976 -175 3 2 7 83 8 179 1 200 12 182 -105 160z"/>
<path d="M7965 15069 c-220 -154 -407 -284 -415 -289 -12 -7 11 -35 112 -137
70 -70 129 -125 131 -123 3 3 125 178 272 390 148 212 277 397 287 413 11 15
18 27 16 27 -2 -1 -183 -127 -403 -281z"/>
<path d="M8681 15290 c25 -36 155 -222 289 -415 134 -192 245 -352 247 -355 5
-6 254 243 251 252 -3 5 -768 542 -818 573 -8 5 6 -20 31 -55z"/>
<path d="M8491 15270 c-1 -3 -14 -79 -30 -170 -79 -446 -142 -797 -147 -812
-5 -17 8 -18 175 -18 100 0 181 4 181 9 0 10 -168 956 -174 981 -2 8 -4 13 -5
10z"/>
<path d="M16002 15239 c-60 -12 -95 -57 -107 -136 -6 -45 46 -268 97 -412 57
-161 202 -432 753 -1406 418 -739 639 -1142 699 -1275 21 -47 79 -206 128
-355 101 -305 152 -420 260 -585 274 -419 410 -784 480 -1290 9 -63 13 -201
12 -405 0 -332 -19 -536 -65 -719 -81 -322 -325 -539 -604 -539 -114 0 -186
18 -300 73 -252 122 -706 561 -985 950 -160 223 -266 427 -480 925 -161 373
-230 518 -530 1105 -485 949 -820 1562 -978 1790 -168 242 -662 801 -779 881
-103 71 -340 128 -455 110 -188 -31 -241 -155 -155 -363 70 -170 729 -1644
865 -1934 170 -364 243 -532 332 -770 98 -261 136 -347 310 -709 151 -315 294
-646 303 -702 4 -29 13 -38 113 -123 137 -114 151 -134 159 -228 15 -176 68
-317 176 -463 34 -46 159 -183 279 -304 119 -121 286 -296 370 -390 241 -266
297 -325 315 -325 21 0 52 -16 235 -125 304 -181 411 -226 629 -267 162 -31
425 -31 596 0 561 99 1039 401 1308 824 136 214 169 370 183 868 3 138 11 260
18 280 10 32 15 35 48 34 25 -1 61 -16 113 -49 88 -54 175 -85 244 -85 155 0
317 115 361 256 52 170 28 338 -81 549 -25 50 -103 182 -174 295 -70 112 -228
375 -350 585 -122 209 -283 477 -357 595 -274 437 -457 773 -998 1835 -297
582 -494 953 -665 1250 -153 266 -323 534 -373 587 -52 56 -202 90 -447 103
-173 9 -300 24 -369 45 -88 26 -97 27 -134 19z"/>
<path d="M10335 12105 c-518 -79 -958 -348 -1227 -749 -99 -149 -186 -338
-275 -601 -214 -634 -248 -1304 -102 -2029 53 -265 108 -429 210 -626 205
-396 544 -691 982 -854 281 -105 493 -137 932 -141 472 -5 767 -57 1226 -218
206 -72 340 -159 521 -340 282 -282 360 -431 361 -692 2 -258 -75 -395 -311
-553 -224 -149 -437 -215 -702 -215 -219 0 -370 35 -590 138 -165 78 -222 88
-321 59 -79 -23 -150 -99 -178 -189 -27 -85 -27 -166 -1 -224 51 -111 249
-258 472 -348 204 -83 367 -114 610 -114 275 0 560 56 973 191 l190 62 85 72
c47 40 164 135 260 211 194 153 404 356 469 453 23 35 64 107 91 160 170 343
189 627 60 900 -59 124 -132 224 -255 348 -320 324 -803 611 -1290 767 -303
98 -657 160 -967 172 -79 3 -160 8 -180 10 -21 3 -147 -1 -280 -7 -455 -24
-631 -11 -807 61 -204 83 -368 257 -469 496 -95 223 -214 665 -247 915 -26
193 -16 532 21 765 86 536 356 1059 733 1417 228 217 336 240 465 97 56 -62
148 -209 188 -299 16 -36 34 -75 40 -88 24 -47 379 -140 491 -128 44 5 57 11
84 42 59 67 109 238 99 339 -15 145 -80 307 -171 423 -120 153 -292 244 -575
304 -125 26 -480 34 -615 13z"/>
</g>
</svg>
